<svg width="99" height="22" viewBox="0 0 99 22" fill="none" xmlns="http://www.w3.org/2000/svg">
<path d="M94.4669 3.10799V10.0074C94.4669 11.2441 93.1163 12.1065 91.4566 12.1065C89.7968 12.1065 88.4787 11.2441 88.4462 10.0074V3.10799H84.8338V10.0399C84.8338 13.6036 87.6977 15.426 90.5941 15.426C92.0912 15.426 93.458 15.1657 94.4669 14.5799V16.142C94.4669 17.2322 93.6696 18.4527 92.498 18.4527H86.3308V22H92.6932C95.6711 22 98.0956 19.4127 98.0956 16.4675V3.10799H94.4669ZM9.93289 9.50296C9.93289 10.7071 9.72135 11.6183 9.33082 12.2367C8.8752 12.9364 8.15922 13.2781 7.15035 13.2781C5.76721 13.2781 4.2539 12.5296 4.18881 10.463V10.3003H0.446206V10.4793C0.413662 12.2204 0.983188 13.7175 2.0897 14.8402C3.32638 16.0769 5.11632 16.7441 7.13408 16.7441C9.08674 16.7441 10.7302 16.1095 11.8856 14.9216C13.0572 13.7175 13.6755 11.9926 13.6755 9.94231V0.0162732H9.93289V9.50296ZM25.961 9.8284C25.961 11.7973 24.2687 13.4734 22.2672 13.4734C21.2583 13.4734 20.3308 13.0828 19.6311 12.3994C18.9477 11.716 18.5734 10.8047 18.5734 9.84467C18.5734 8.88461 18.9477 7.9571 19.6311 7.27367C20.3308 6.57397 21.2583 6.18343 22.2672 6.18343C24.285 6.16716 25.961 7.84319 25.961 9.8284ZM25.7657 4.3284C24.9847 3.6287 23.748 2.91272 21.958 2.91272C20.1518 2.91272 18.4595 3.6287 17.174 4.9142C15.8885 6.21598 15.1725 7.9571 15.1725 9.8284C15.1725 11.6346 15.8885 13.3595 17.174 14.6775C18.4595 15.9956 20.1681 16.7278 21.958 16.7278C23.4225 16.7278 24.7406 16.2559 25.7657 15.3609V16.5488H29.3782V3.12426L25.7657 3.14054V4.3284ZM65.9743 2.71746C69.4077 2.71746 72.3693 5.14201 73.0202 8.47781C73.2317 9.40533 73.2317 10.284 73.0364 11.0814L73.0039 11.2115H62.4921C62.9151 12.7248 64.2169 13.6524 65.9743 13.6524C67.1947 13.6524 68.4477 13.1642 69.2776 12.3831L72.5971 13.2618L72.5808 13.2944C72.0438 14.3683 71.0838 15.2959 69.8145 15.963C68.6429 16.5814 67.2761 16.9231 65.9906 16.9231C64.0379 16.9231 62.2154 16.1746 60.8648 14.824C59.5305 13.4896 58.782 11.716 58.782 9.84467C58.782 7.92456 59.5305 6.13461 60.9137 4.8003C62.2643 3.4497 64.0705 2.71746 65.9743 2.71746ZM49.8648 0V9.32397L54.8604 3.10799H59.14L53.7376 9.81213L59.5143 16.5325H55.2184L49.8648 10.3003V16.5325H46.2524V0H49.8648ZM65.958 5.97189C64.0867 5.97189 62.8989 7.14349 62.5083 8.34764H69.3752C68.9847 7.14349 67.8131 5.97189 65.958 5.97189ZM80.0823 3.10799C77.1045 3.10799 74.6799 5.48373 74.6799 8.429V16.5325H78.2924V8.73817C78.2924 7.64793 79.0897 6.63906 80.2613 6.63906H83.3205V3.10799C83.3367 3.10799 80.1474 3.10799 80.0823 3.10799ZM41.3219 11.3743L41.2894 11.4556C40.7199 12.7737 39.4832 13.6035 38.0838 13.6035C36.0335 13.6035 34.3737 11.9112 34.3737 9.8284C34.3737 7.72929 36.0335 6.03698 38.0838 6.03698C39.4506 6.03698 40.6873 6.86687 41.2894 8.18491L41.3219 8.26627L44.7391 7.3713L44.674 7.22485C43.5838 4.49112 40.9965 2.73373 38.0675 2.73373C36.1474 2.73373 34.3412 3.46597 32.9906 4.78402C31.6237 6.11834 30.8589 7.92456 30.8589 9.84467C30.8589 11.716 31.5912 13.4896 32.9418 14.824C34.2924 16.1746 36.1148 16.9231 38.0675 16.9231C40.9965 16.9231 43.6 15.1657 44.674 12.4645L44.7391 12.2855L41.3219 11.3743Z" fill="#1F2937"/>
</svg>
