<svg width="99" height="22" viewBox="0 0 99 22" fill="none" xmlns="http://www.w3.org/2000/svg">
<path d="M71.3683 15.266C69.8973 17.6033 67.3639 19.0089 64.5853 19.0089C60.1722 19.0089 56.5764 15.4131 56.5764 11C56.5764 6.58694 60.1722 2.9911 64.5853 2.9911C67.3312 2.9911 69.8483 4.3804 71.3357 6.68501L71.5318 6.99555L74.0489 5.41011L73.8527 5.09957C71.826 1.91234 68.3609 0.0163574 64.5853 0.0163574C58.5214 0.0163574 53.6016 4.95246 53.6016 11C53.6016 17.0476 58.5377 21.9837 64.5853 21.9837C68.3773 21.9837 71.8587 20.0713 73.8854 16.8514L74.0816 16.5409L71.5645 14.9554L71.3683 15.266Z" fill="#1F2937"/>
<path d="M3.25986 0.0163574H0.236084V21.9837H15.0281V18.9436H3.25986V0.0163574Z" fill="#1F2937"/>
<path d="M28.0385 0L18.4114 22H21.7458L29.1663 5.06687L36.6031 22H39.9211L30.2614 0H28.0385Z" fill="#1F2937"/>
<path d="M53.1113 0.0163574H36.5377V3.05647H43.3044V21.9837H46.3282V3.05647H53.1113V0.0163574Z" fill="#1F2937"/>
<path d="M91.6031 9.47996H79.9003V0.0163574H76.8602V21.9837H79.9003V12.5201H91.6031V22H94.6432V0.0163574H91.6031V9.47996Z" fill="#1F2937"/>
<path d="M97.2747 1.02973C97.3728 1.02973 97.4218 1.01338 97.4709 0.997038L97.5689 0.833591L97.4709 0.670144C97.4218 0.653799 97.3728 0.637458 97.2747 0.637458H96.9969V1.01338H97.2747V1.02973ZM96.9969 1.63449H96.8498V0.523042H97.3074C97.4545 0.523042 97.5363 0.555731 97.6016 0.58842C97.6834 0.653799 97.716 0.735523 97.716 0.833591C97.716 1.02973 97.5689 1.1278 97.4218 1.16049L97.7487 1.63449H97.5689L97.2257 1.17683H96.9969V1.63449ZM97.2421 0.147116C96.7354 0.147116 96.3431 0.572076 96.3431 1.07876C96.3431 1.58545 96.7354 2.01041 97.2421 2.01041C97.7651 2.01041 98.1574 1.58545 98.1574 1.07876C98.1574 0.555731 97.7651 0.147116 97.2421 0.147116ZM97.2421 2.14117C96.6536 2.14117 96.196 1.68352 96.196 1.07876C96.196 0.474007 96.6536 0.0163574 97.2421 0.0163574C97.8468 0.0163574 98.3045 0.474007 98.3045 1.07876C98.3045 1.66717 97.8468 2.14117 97.2421 2.14117Z" fill="#1F2937"/>
</svg>
