<svg width="105" height="22" viewBox="0 0 105 22" fill="none" xmlns="http://www.w3.org/2000/svg">
<path fill-rule="evenodd" clip-rule="evenodd" d="M14.1579 2.60808C14.0275 3.91178 12.8655 4.86242 11.5616 4.73221C10.2583 4.60177 9.30768 3.43888 9.43812 2.13564C9.56856 0.832626 10.7305 -0.118476 12.0347 0.0119639C13.3377 0.142864 14.2881 1.30507 14.1579 2.60808Z" fill="white"/>
<path fill-rule="evenodd" clip-rule="evenodd" d="M24.2609 18.8457C22.6728 19.5528 19.4139 19.6578 18.4695 19.5767C17.5253 19.4954 15.0147 19.4251 13.976 18.3221C12.7737 17.0461 13.0765 14.8228 13.3436 12.8607L13.3722 12.6508C13.6391 10.6764 14.1249 8.23863 15.5286 6.88238C17.3949 5.08043 20.1878 5.76258 21.6929 6.1304C21.8911 6.17994 23.6728 6.63141 25.0896 7.24858C23.9108 6.30439 22.399 5.61901 20.9577 5.18759C18.3243 4.39896 14.8368 3.91569 12.6631 5.90432C11.8696 6.63003 11.3633 7.68899 11.019 8.68595C10.2972 10.7804 10.1002 13.2797 10.1783 15.0286C10.22 15.9673 10.5217 17.2247 11.0257 18.0361C11.6652 19.0663 12.871 19.8846 14.2166 20.2162C15.7846 20.6025 17.3084 20.6437 18.8894 20.5629C20.7231 20.4684 22.0045 20.1049 23.3778 19.4064C23.6921 19.246 23.9876 19.0591 24.2609 18.8457Z" fill="white"/>
<path d="M6.91246 12.0965C5.97334 12.6609 4.85539 12.4966 3.87018 12.3535C2.69023 12.1825 1.45198 11.8248 0.416992 11.085C1.97051 12.4887 5.05474 13.3963 7.23441 13.0123C7.80733 12.9114 8.3307 12.7904 8.90109 12.1571C9.76992 11.1926 9.97641 9.79583 10.0741 8.60528C10.1679 7.45391 10.3182 5.93174 9.69709 4.93109C8.54457 3.07198 5.97127 2.93485 4.19167 3.08281C3.38391 3.14941 2.15926 3.30935 1.50476 3.65112C1.40174 3.70505 1.30656 3.7652 1.21369 3.82834C2.28993 3.53082 3.84437 3.45661 3.84437 3.45661C5.10221 3.39716 6.96731 3.72856 7.63864 4.70616C8.34661 5.73769 8.27586 7.34952 8.15648 8.58708C8.03618 9.84216 7.78406 11.5724 6.91246 12.0965Z" fill="white"/>
<path fill-rule="evenodd" clip-rule="evenodd" d="M67.5627 10.8963C68.3066 10.2118 68.95 9.86427 69.4759 9.86427C69.8576 9.86427 70.0993 9.9765 70.2155 10.2081C70.2941 10.3879 70.3349 10.7163 70.3349 11.1783V17.8674V18.0054H70.4734H72.5837H72.7224V17.8674V10.8032C72.7224 9.83016 72.4956 9.08578 72.0495 8.59122C71.5994 8.09228 70.9223 7.83923 70.0357 7.83923C69.0413 7.83923 68.0701 8.2877 67.1449 9.17013C66.5387 8.28747 65.7462 7.83923 64.785 7.83923C63.9014 7.83923 63.0671 8.19759 62.3002 8.90487C62.2554 8.58546 62.1852 8.18769 62.0261 7.94064L61.9731 7.85744L61.8766 7.88071L59.967 8.34624L59.8068 8.38542L59.873 8.5366C60.0778 9.00282 60.1175 9.77462 60.1175 10.95V17.8676V18.0057H60.256H62.3329H62.4709V17.8676V10.7479C63.1229 10.1629 63.7548 9.8645 64.348 9.8645C64.7373 9.8645 64.9961 9.98618 65.1399 10.236C65.2288 10.4135 65.2758 10.7469 65.2758 11.2198V17.8676V18.0057H65.4139H67.4242H67.5624V17.8676L67.5627 10.8963Z" fill="#1F2937"/>
<path fill-rule="evenodd" clip-rule="evenodd" d="M92.6835 18.0055H94.7655H94.9022V17.8676V8.03537V7.87036L94.7413 7.90009L92.6587 8.27989L92.5471 8.30017V8.41494V17.8676V18.0055H92.6835Z" fill="#1F2937"/>
<path fill-rule="evenodd" clip-rule="evenodd" d="M101.597 11.7182H101.089C97.8557 11.7182 96.2165 12.8764 96.2165 15.1591C96.2165 16.1358 96.532 16.897 97.1549 17.4218C97.7338 17.9041 98.5342 18.1477 99.5349 18.1477C100.507 18.1477 101.843 17.2356 102.174 16.9984L103.895 17.873L104.124 18.0152L104.102 17.7467L103.857 14.8826V11.894C103.869 10.6066 103.816 9.83185 103.696 9.52603C103.247 8.42582 102.229 7.86926 100.668 7.86926C99.3182 7.86926 97.9309 8.30783 96.5456 9.17251L96.4294 9.24487L96.5025 9.36056L97.4305 10.829L97.5059 10.9473L97.6221 10.8689C98.6428 10.1787 99.5791 9.82862 100.407 9.82862C100.897 9.82862 101.229 9.95791 101.391 10.213C101.529 10.4267 101.597 10.8095 101.597 11.3513V11.7182ZM101.512 15.4477C101.088 16.0455 100.573 16.3377 99.9375 16.3377C99.1325 16.3377 98.7575 15.9187 98.7575 15.0202C98.7575 14.3387 99.0062 13.8856 99.5176 13.6353C99.8796 13.459 100.471 13.3701 101.277 13.3701C101.335 13.3701 101.414 13.3772 101.512 13.3917V15.4477Z" fill="#1F2937"/>
<path fill-rule="evenodd" clip-rule="evenodd" d="M89.0338 17.3983C89.0767 17.6347 89.123 17.8071 89.1758 17.9207L89.2124 18H89.3H91.2236H91.4244L91.3508 17.8131C91.1665 17.3473 91.0625 16.3057 91.0245 14.539V4.25983V4.14344L88.7425 3.77863V3.93902L88.7432 7.44776L88.7388 7.95177C88.7351 8.22025 88.7328 8.41061 88.749 8.69523C88.2032 8.25228 87.5598 8.02644 86.8302 8.02644C85.4931 8.02644 84.4283 8.59152 83.6669 9.7051C83.0184 10.6548 82.6898 11.8278 82.6898 13.1931C82.6898 14.5844 83.0057 15.7452 83.6282 16.6428C84.3502 17.6815 85.4071 18.2081 86.768 18.2081C87.6488 18.2086 88.4086 17.9341 89.0338 17.3983ZM88.7063 15.4002C88.3597 15.9441 87.8488 16.2102 87.1441 16.2102C86.3441 16.2102 85.8231 15.8984 85.5521 15.2578C85.3686 14.8372 85.2764 14.1398 85.2764 13.1834C85.2764 11.0178 85.8687 9.96598 87.0867 9.96598C87.7225 9.96598 88.2526 10.1944 88.7063 10.6592V15.4002Z" fill="#1F2937"/>
<path fill-rule="evenodd" clip-rule="evenodd" d="M56.0946 11.3955C56.1914 11.03 56.4006 10.7191 56.7193 10.4709C57.0459 10.2171 57.3987 10.0932 57.7977 10.0932C57.9401 10.0932 58.1302 10.124 58.3634 10.1851L58.489 10.2181L58.5317 10.0945L59.1912 8.19233L59.2336 8.07157L59.117 8.01834C58.8813 7.91094 58.6091 7.85632 58.3079 7.85632C57.46 7.85632 56.6666 8.28405 55.945 9.12431C55.9012 8.69611 55.7805 8.29535 55.5823 7.92984L55.5302 7.83374L55.4239 7.86139L53.4798 8.35573L53.3316 8.39329L53.3809 8.53756C53.5978 9.16717 53.7082 10.0213 53.7082 11.077V17.8656V18.0057H53.8488H55.9547H56.0953V17.8656V11.3955H56.0946Z" fill="#1F2937"/>
<path fill-rule="evenodd" clip-rule="evenodd" d="M37.7475 17.3484C38.3725 17.7769 39.0761 17.996 39.8438 17.996C41.2042 17.996 42.2325 17.4231 42.9015 16.2941C43.4449 15.3861 43.7206 14.1999 43.7206 12.7695C43.7206 11.4482 43.4491 10.3432 42.9128 9.48242C42.2648 8.45412 41.2869 7.93259 40.006 7.93259C39.0199 7.93259 38.2112 8.24394 37.5973 8.85696C37.5729 8.52579 37.5265 8.24786 37.4574 8.028L37.4217 7.9137L37.3037 7.9349L35.4116 8.26676L35.2738 8.29119L35.3012 8.42808C35.4291 9.06991 35.4941 9.84356 35.4941 10.7285V21.6278V21.8034L35.6642 21.7603L37.6441 21.2614L37.7473 21.2351V21.1289V18.005V17.3484H37.7475ZM37.7475 15.3561V10.7859C38.2843 10.1996 38.9123 9.90048 39.6154 9.90048C40.3059 9.90048 40.7599 10.2475 41.0035 10.9604C41.1606 11.4148 41.2399 12.1009 41.2399 12.9995C41.2399 15.0966 40.629 16.1157 39.372 16.1157C38.8139 16.1155 38.2679 15.8585 37.7475 15.3561Z" fill="#1F2937"/>
<path fill-rule="evenodd" clip-rule="evenodd" d="M50.2868 11.8522H47.7805H47.6441V12.3307L47.7453 12.3579L52.5211 13.6406L52.6925 13.6867V13.5085V13.0824C52.6925 9.64767 51.3584 7.90656 48.7263 7.90656C47.3521 7.90656 46.2706 8.43615 45.5115 9.47967C44.8484 10.3863 44.5129 11.5582 44.5129 12.9626C44.5129 14.4191 44.8881 15.6122 45.6288 16.5073C46.4236 17.4969 47.5612 17.9995 49.0061 17.9995C50.3156 17.9995 51.4889 17.5724 52.4941 16.7294L52.5868 16.6518L52.5208 16.5506L51.7189 15.3142L51.6343 15.1835L51.5158 15.2847C50.8224 15.8767 50.0616 16.1775 49.2543 16.1775C47.9603 16.1775 47.253 15.5483 47.0922 14.2545C47.0873 14.2144 47.0583 13.8171 47.0583 13.6565V11.9891L47.0611 11.8525C47.0936 10.405 47.6363 9.69883 48.7208 9.69883C49.2716 9.69883 49.6742 9.94243 49.9505 10.4432C50.1591 10.8205 50.2707 11.2945 50.2868 11.8522Z" fill="#1F2937"/>
<path fill-rule="evenodd" clip-rule="evenodd" d="M79.4466 11.8522H76.9394H76.803V12.3307L76.9039 12.3579L81.6827 13.6406L81.8549 13.6867V13.5085V13.0824C81.8549 9.64767 80.5193 7.90656 77.885 7.90656C76.5112 7.90656 75.4299 8.43615 74.6703 9.47967C74.0073 10.3863 73.6715 11.5582 73.6715 12.9626C73.6715 14.4191 74.0469 15.6122 74.7881 16.5073C75.5834 17.4969 76.7198 17.9995 78.1654 17.9995C79.4758 17.9995 80.6498 17.5724 81.656 16.7294L81.7486 16.6518L81.6827 16.5506L80.8807 15.3142L80.7961 15.1835L80.6777 15.2847C79.9838 15.8767 79.2223 16.1775 78.4141 16.1775C77.1194 16.1775 76.4119 15.5483 76.2517 14.2545C76.2469 14.2144 76.2169 13.8171 76.2169 13.6565V11.9891L76.2204 11.8525C76.2529 10.405 76.7954 9.69883 77.8801 9.69883C78.4316 9.69883 78.834 9.94243 79.1103 10.4432C79.3196 10.8205 79.4309 11.2945 79.4466 11.8522Z" fill="#1F2937"/>
<path fill-rule="evenodd" clip-rule="evenodd" d="M31.8841 15.1245C31.7329 15.4236 31.4941 15.6866 31.1731 15.9055C30.8447 16.1288 30.511 16.2424 30.1814 16.2424C29.662 16.2424 29.3195 16.0606 29.1331 15.6882C29.0075 15.4264 28.9432 14.9786 28.9432 14.3598V8.07915V7.91507L28.7819 7.94479L26.7366 8.32551L26.6252 8.34625V8.45941V14.8099C26.6252 15.9145 26.8068 16.6697 27.1802 17.1184C27.7287 17.766 28.556 18.0933 29.6413 18.0933C30.655 18.0933 32.0041 17.1931 32.3388 16.9583L33.8842 17.9361L34.1128 18.0654V7.91345L33.9755 7.94479L31.9949 8.32505L31.8841 8.34625V8.45918V15.1245Z" fill="#1F2937"/>
<path fill-rule="evenodd" clip-rule="evenodd" d="M23.2167 11.9923L22.0367 11.6957C21.2483 11.5008 20.8655 11.1797 20.8655 10.7156C20.8655 10.3743 20.9858 10.1196 21.2317 9.9355C21.4871 9.74445 21.8028 9.64766 22.1702 9.64766C22.8175 9.64766 23.5767 9.87512 24.4264 10.3236L24.5517 10.3897L24.6133 10.2618L25.2867 8.8611L25.3438 8.74241L25.2274 8.68134C24.1888 8.13308 23.116 7.85492 22.039 7.85492C21.0402 7.85492 20.1885 8.1128 19.5058 8.62119C18.7615 9.20333 18.3851 9.99265 18.3851 10.9686C18.3851 11.6812 18.6048 12.279 19.0382 12.7469C19.4669 13.2101 20.0447 13.5224 20.7545 13.6749C20.7552 13.6751 21.8955 13.9153 21.8955 13.9153C22.8542 14.1121 23.3197 14.4979 23.3197 15.0945C23.3197 15.461 23.19 15.7403 22.9238 15.9493C22.6511 16.1634 22.3149 16.2713 21.9243 16.2713C21.0559 16.2713 20.0477 15.9463 18.9283 15.3056L18.8027 15.2335L18.7377 15.3635L18.0095 16.8283L17.9512 16.9454L18.0664 17.0087C19.3404 17.7089 20.5839 18.064 21.7627 18.064C22.8477 18.064 23.7689 17.7932 24.5006 17.2595C25.321 16.6402 25.7358 15.7926 25.7358 14.7394C25.7361 13.3412 24.8884 12.4166 23.2167 11.9923Z" fill="#1F2937"/>
<path fill-rule="evenodd" clip-rule="evenodd" d="M14.1579 2.60808C14.0275 3.91178 12.8655 4.86242 11.5616 4.73221C10.2583 4.60177 9.30768 3.43888 9.43812 2.13564C9.56856 0.832626 10.7305 -0.118476 12.0347 0.0119639C13.3377 0.142864 14.2881 1.30507 14.1579 2.60808Z" fill="#1F2937"/>
<path fill-rule="evenodd" clip-rule="evenodd" d="M24.2609 18.8457C22.6728 19.5528 19.4139 19.6578 18.4695 19.5767C17.5253 19.4954 15.0147 19.4251 13.976 18.3221C12.7737 17.0461 13.0765 14.8228 13.3436 12.8607L13.3722 12.6508C13.6391 10.6764 14.1249 8.23863 15.5286 6.88238C17.3949 5.08043 20.1878 5.76258 21.6929 6.1304C21.8911 6.17994 23.6728 6.63141 25.0896 7.24858C23.9108 6.30439 22.399 5.61901 20.9577 5.18759C18.3243 4.39896 14.8368 3.91569 12.6631 5.90432C11.8696 6.63003 11.3633 7.68899 11.019 8.68595C10.2972 10.7804 10.1002 13.2797 10.1783 15.0286C10.22 15.9673 10.5217 17.2247 11.0257 18.0361C11.6652 19.0663 12.871 19.8846 14.2166 20.2162C15.7846 20.6025 17.3084 20.6437 18.8894 20.5629C20.7231 20.4684 22.0045 20.1049 23.3778 19.4064C23.6921 19.246 23.9876 19.0591 24.2609 18.8457Z" fill="#1F2937"/>
<path d="M6.91246 12.0965C5.97334 12.6609 4.85539 12.4966 3.87018 12.3535C2.69023 12.1825 1.45198 11.8248 0.416992 11.085C1.97051 12.4887 5.05474 13.3963 7.23441 13.0123C7.80733 12.9114 8.3307 12.7904 8.90109 12.1571C9.76992 11.1926 9.97641 9.79583 10.0741 8.60528C10.1679 7.45391 10.3182 5.93174 9.69709 4.93109C8.54457 3.07198 5.97127 2.93485 4.19167 3.08281C3.38391 3.14941 2.15926 3.30935 1.50476 3.65112C1.40174 3.70505 1.30656 3.7652 1.21369 3.82834C2.28993 3.53082 3.84437 3.45661 3.84437 3.45661C5.10221 3.39716 6.96731 3.72856 7.63864 4.70616C8.34661 5.73769 8.27586 7.34952 8.15648 8.58708C8.03618 9.84216 7.78406 11.5724 6.91246 12.0965Z" fill="#1F2937"/>
<path d="M39.9428 18.7596C39.9175 18.943 39.9041 19.1325 39.9041 19.3265H40.4047L40.2857 19.6093H39.9041V20.6616C39.9041 20.7673 39.9182 20.8404 39.9451 20.88C39.9802 20.9342 40.0516 20.9614 40.1585 20.9614C40.2129 20.9614 40.2772 20.9494 40.3512 20.9238L40.4084 21.1674C40.2768 21.2223 40.141 21.249 40.0011 21.249C39.6391 21.249 39.4582 21.0891 39.4582 20.7678V19.6095H39.2266V19.3267H39.457C39.457 19.1103 39.4639 18.9548 39.4778 18.8605L39.9428 18.7596Z" fill="#1F2937"/>
<path d="M42.975 20.3734H41.7347V20.4029C41.7347 20.7581 41.9057 20.9355 42.2479 20.9355C42.4343 20.9355 42.607 20.8747 42.7657 20.7532L42.9423 21.0005C42.7252 21.1664 42.4754 21.2487 42.1919 21.2487C41.8817 21.2487 41.6418 21.1522 41.4715 20.9597C41.3125 20.7839 41.2327 20.553 41.2327 20.2658C41.2327 19.9886 41.3035 19.7613 41.4468 19.5832C41.6086 19.3804 41.8368 19.279 42.1308 19.279C42.6936 19.279 42.9752 19.6152 42.9752 20.2879L42.975 20.3734ZM42.5053 20.0729C42.5053 19.9443 42.4795 19.8369 42.427 19.7507C42.3608 19.642 42.262 19.5883 42.1304 19.5883C41.866 19.5883 41.7344 19.7496 41.7344 20.0729H42.5053Z" fill="#1F2937"/>
<path d="M45.4434 21.0003C45.259 21.1663 45.0371 21.2485 44.776 21.2485C44.4738 21.2485 44.2457 21.1531 44.0915 20.9637C43.9572 20.7957 43.8903 20.5694 43.8903 20.2861C43.8903 20.0096 43.9641 19.7787 44.1125 19.5936C44.2805 19.3839 44.5126 19.2788 44.8092 19.2788C45.0313 19.2788 45.2235 19.3463 45.3862 19.4818L45.1588 19.7515C45.0412 19.6565 44.9244 19.6091 44.8089 19.6091C44.6329 19.6091 44.5132 19.6955 44.4501 19.8679C44.4116 19.9686 44.3923 20.1191 44.3923 20.3186C44.3923 20.7298 44.531 20.9353 44.8087 20.9353C44.9514 20.9353 45.0915 20.8745 45.2288 20.7531L45.4434 21.0003Z" fill="#1F2937"/>
<path d="M47.9925 21.2012H47.5424V19.9531C47.5424 19.8468 47.5311 19.7712 47.509 19.7268C47.4735 19.6597 47.4051 19.6265 47.3037 19.6265C47.1557 19.6265 47.0027 19.697 46.8467 19.8381V21.2012H46.4003V19.8231C46.4003 19.6475 46.3749 19.4993 46.3231 19.3781L46.7351 19.2746C46.7851 19.358 46.8096 19.4468 46.8096 19.5401C47.0352 19.3629 47.2479 19.2746 47.4484 19.2746C47.624 19.2746 47.7586 19.3214 47.8526 19.4159C47.9455 19.5104 47.9923 19.6369 47.9923 19.795L47.9925 21.2012Z" fill="#1F2937"/>
<path d="M49.9297 19.279C50.2374 19.279 50.4734 19.3781 50.6384 19.5756C50.7866 19.7514 50.8605 19.9828 50.8605 20.2695C50.8605 20.5513 50.7868 20.7804 50.6384 20.956C50.4734 21.151 50.2399 21.2489 49.938 21.2489C49.6361 21.2489 49.4026 21.1505 49.2376 20.9523C49.0925 20.777 49.0192 20.5481 49.0192 20.266C49.0192 19.9867 49.0925 19.7574 49.2376 19.5795C49.3999 19.379 49.6306 19.279 49.9297 19.279ZM49.9318 19.5883C49.6582 19.5883 49.5218 19.806 49.5218 20.2423C49.5218 20.443 49.5409 20.594 49.5789 20.6954C49.6444 20.8643 49.7663 20.9487 49.9442 20.9487C50.2205 20.9487 50.3584 20.7251 50.3584 20.2789C50.3586 19.8183 50.2164 19.5883 49.9318 19.5883Z" fill="#1F2937"/>
<path d="M52.6236 21.1996C52.5418 21.2296 52.4505 21.2446 52.3524 21.2446C52.0482 21.2446 51.8956 21.0678 51.8956 20.7141V19.114C51.8956 18.8964 51.8815 18.7132 51.853 18.5646L52.322 18.4719C52.3468 18.5586 52.3591 18.7303 52.3591 18.9872V20.5785C52.3591 20.8334 52.401 20.9604 52.4856 20.9604C52.5042 20.9604 52.5257 20.9558 52.5506 20.9459L52.6236 21.1996Z" fill="#1F2937"/>
<path d="M54.3871 19.279C54.6943 19.279 54.9309 19.3781 55.0957 19.5756C55.2439 19.7514 55.3184 19.9828 55.3184 20.2695C55.3184 20.5513 55.2439 20.7804 55.0957 20.956C54.9312 21.151 54.6977 21.2489 54.3954 21.2489C54.0935 21.2489 53.86 21.1505 53.695 20.9523C53.5498 20.777 53.477 20.5481 53.477 20.266C53.477 19.9867 53.5496 19.7574 53.695 19.5795C53.8577 19.379 54.0882 19.279 54.3871 19.279ZM54.3891 19.5883C54.1161 19.5883 53.9792 19.806 53.9792 20.2423C53.9792 20.443 53.9983 20.594 54.0363 20.6954C54.1025 20.8643 54.2239 20.9487 54.4018 20.9487C54.6779 20.9487 54.8157 20.7251 54.8157 20.2789C54.816 19.8183 54.6742 19.5883 54.3891 19.5883Z" fill="#1F2937"/>
<path d="M58.3219 19.5037C58.2177 19.585 58.0967 19.6258 57.9589 19.6258C57.8988 19.6258 57.8453 19.6185 57.799 19.6032C57.8884 19.6968 57.9329 19.8067 57.9329 19.9326C57.9329 20.1172 57.8506 20.2624 57.6863 20.3688C57.5381 20.4596 57.3576 20.5055 57.1433 20.5055C56.9576 20.5668 56.8642 20.6258 56.8642 20.6827C56.8642 20.7295 56.9426 20.7569 57.0988 20.7641C57.0468 20.7641 57.1415 20.7641 57.383 20.7641C57.5807 20.7641 57.7411 20.8072 57.8651 20.8943C58.0048 20.9906 58.0744 21.1254 58.0744 21.2985C58.0744 21.5133 57.9757 21.6753 57.7785 21.7841C57.616 21.871 57.406 21.9141 57.1475 21.9141C56.9034 21.9141 56.7011 21.8834 56.5418 21.8214C56.325 21.7348 56.2162 21.5951 56.2162 21.402C56.2162 21.3474 56.2298 21.2812 56.2579 21.2017H56.6861C56.6654 21.2536 56.6545 21.2983 56.6545 21.3354C56.6545 21.5151 56.8069 21.6055 57.1118 21.6055C57.2413 21.6055 57.35 21.5854 57.4381 21.5456C57.5505 21.4962 57.607 21.4183 57.607 21.3114C57.607 21.195 57.5369 21.1183 57.3966 21.0812C57.3224 21.0614 57.2 21.0514 57.0297 21.0514C56.832 21.0514 56.6886 21.0415 56.6011 21.0217C56.4307 20.9798 56.345 20.8947 56.345 20.7659C56.345 20.6274 56.4773 20.5202 56.7398 20.4433C56.4254 20.3615 56.2683 20.1845 56.2683 19.913C56.2683 19.7104 56.3519 19.5512 56.519 19.435C56.673 19.3308 56.8665 19.2792 57.1 19.2792C57.1765 19.2792 57.2848 19.2958 57.4247 19.3278C57.5653 19.361 57.6676 19.3776 57.7338 19.3776C57.8681 19.3776 57.9939 19.3345 58.1124 19.2493L58.3219 19.5037ZM57.094 19.5883C56.8553 19.5883 56.7356 19.6966 56.7356 19.913C56.7356 20.1225 56.8553 20.2271 57.094 20.2271C57.3335 20.2271 57.4526 20.1213 57.4526 19.9095C57.4526 19.695 57.3335 19.5883 57.094 19.5883Z" fill="#1F2937"/>
<path d="M59.3587 19.0472C59.2764 19.0472 59.2071 19.0204 59.1513 18.9674C59.0951 18.9142 59.067 18.8508 59.067 18.7764C59.067 18.7001 59.0955 18.6351 59.1534 18.5821C59.2108 18.5289 59.282 18.5019 59.3672 18.5019C59.4525 18.5019 59.5233 18.5286 59.5793 18.5821C59.6353 18.6351 59.6636 18.7001 59.6636 18.7764C59.6636 18.8536 59.6341 18.9172 59.5751 18.9697C59.5159 19.0211 59.4438 19.0472 59.3587 19.0472ZM59.5862 21.2013H59.1313V19.3527L59.5862 19.2788V21.2013Z" fill="#1F2937"/>
<path d="M62.4217 21.0196L62.1871 21.2789C62.0472 21.2291 61.9523 21.1452 61.903 21.0272C61.7511 21.1807 61.5605 21.257 61.33 21.257C61.1187 21.257 60.9519 21.2114 60.8311 21.1199C60.7025 21.0212 60.6375 20.8793 60.6375 20.6942C60.6375 20.2593 60.9811 20.0425 61.6677 20.0425H61.8075V19.9427C61.8075 19.8293 61.7914 19.7493 61.7582 19.7023C61.7172 19.6426 61.6375 19.6134 61.5195 19.6134C61.3326 19.6134 61.1252 19.6841 60.8972 19.8256L60.6954 19.5339C60.9931 19.3636 61.286 19.2787 61.5755 19.2787C61.903 19.2787 62.1127 19.3822 62.2058 19.5899C62.2302 19.6463 62.2413 19.7998 62.2385 20.0489V20.5864C62.2355 20.7097 62.2413 20.7915 62.2556 20.8304C62.28 20.9023 62.336 20.9652 62.4217 21.0196ZM61.7882 20.3216C61.7532 20.3172 61.726 20.3151 61.7073 20.3151C61.5259 20.3151 61.3934 20.3338 61.3095 20.3709C61.1881 20.4253 61.1272 20.5255 61.1272 20.6714C61.1272 20.8645 61.2231 20.9609 61.4142 20.9609C61.5649 20.9609 61.6893 20.8954 61.7882 20.765V20.3216Z" fill="#1F2937"/>
<path d="M66.5708 21.0196L66.3359 21.2789C66.196 21.2291 66.1013 21.1452 66.0513 21.0272C65.9006 21.1807 65.71 21.257 65.4791 21.257C65.2678 21.257 65.1016 21.2114 64.9804 21.1199C64.8516 21.0212 64.7866 20.8793 64.7866 20.6942C64.7866 20.2593 65.1302 20.0425 65.8167 20.0425H65.9573V19.9427C65.9573 19.8293 65.9407 19.7493 65.908 19.7023C65.8663 19.6426 65.787 19.6134 65.6685 19.6134C65.4821 19.6134 65.2749 19.6841 65.0467 19.8256L64.8449 19.5339C65.1419 19.3636 65.4353 19.2787 65.725 19.2787C66.0522 19.2787 66.2622 19.3822 66.3551 19.5899C66.3802 19.6463 66.3901 19.7998 66.3878 20.0489V20.5864C66.3848 20.7097 66.3901 20.7915 66.4044 20.8304C66.429 20.9023 66.4846 20.9652 66.5708 21.0196ZM65.9368 20.3216C65.9017 20.3172 65.8748 20.3151 65.8559 20.3151C65.675 20.3151 65.5425 20.3338 65.4583 20.3709C65.3367 20.4253 65.2758 20.5255 65.2758 20.6714C65.2758 20.8645 65.3717 20.9609 65.5634 20.9609C65.7137 20.9609 65.8386 20.8954 65.9368 20.765V20.3216Z" fill="#1F2937"/>
<path d="M70.8326 20.2207C70.8326 20.5034 70.7743 20.7339 70.6565 20.9125C70.5145 21.131 70.2988 21.2402 70.0101 21.2402C69.8271 21.2402 69.6635 21.189 69.5194 21.0865C69.5194 21.1462 69.5194 21.2082 69.5194 21.272V21.9L69.0816 22V19.8127C69.0816 19.6325 69.067 19.477 69.0385 19.3458L69.4547 19.2792C69.4742 19.3357 69.4853 19.4115 69.4876 19.5074C69.6224 19.3553 69.8082 19.2792 70.0446 19.2792C70.3168 19.2792 70.5217 19.3786 70.6593 19.5768C70.775 19.7455 70.8326 19.96 70.8326 20.2207ZM69.9603 19.618C69.793 19.618 69.6459 19.6821 69.5197 19.8121V20.7507C69.6423 20.862 69.7722 20.9183 69.9068 20.9183C70.2009 20.9183 70.3482 20.7007 70.3482 20.2663C70.3482 20.0822 70.3297 19.9434 70.2945 19.8489C70.2366 19.695 70.1253 19.618 69.9603 19.618Z" fill="#1F2937"/>
<path d="M72.6435 19.279C72.9507 19.279 73.1872 19.3781 73.3515 19.5756C73.5001 19.7514 73.5741 19.9828 73.5741 20.2695C73.5741 20.5513 73.4999 20.7804 73.3515 20.956C73.1872 21.151 72.953 21.2489 72.6511 21.2489C72.3492 21.2489 72.1158 21.1505 71.9507 20.9523C71.8056 20.777 71.7327 20.5481 71.7327 20.266C71.7327 19.9867 71.8053 19.7574 71.9507 19.5795C72.1132 19.379 72.3439 19.279 72.6435 19.279ZM72.6456 19.5883C72.372 19.5883 72.2349 19.806 72.2349 20.2423C72.2349 20.443 72.254 20.594 72.2927 20.6954C72.3582 20.8643 72.4796 20.9487 72.6571 20.9487C72.9336 20.9487 73.0719 20.7251 73.0719 20.2789C73.0719 19.8183 72.93 19.5883 72.6456 19.5883Z" fill="#1F2937"/>
<path d="M75.7319 19.308L75.592 19.6811C75.5399 19.6678 75.4977 19.6609 75.4643 19.6609C75.3737 19.6609 75.2917 19.6874 75.2173 19.7404C75.1435 19.7927 75.0951 19.8591 75.0734 19.9381V21.2015H74.6185V19.8789C74.6185 19.6694 74.5941 19.5009 74.5455 19.3751L74.9619 19.279C75.0138 19.3675 75.0396 19.4659 75.0396 19.5737C75.2016 19.3774 75.379 19.279 75.5712 19.279C75.6314 19.279 75.6851 19.2884 75.7319 19.308Z" fill="#1F2937"/>
<path d="M77.0815 18.7596C77.0552 18.943 77.0427 19.1325 77.0427 19.3265H77.5428L77.4237 19.6093H77.0425V20.6616C77.0425 20.7673 77.0556 20.8404 77.0831 20.88C77.1188 20.9342 77.19 20.9614 77.2965 20.9614C77.3509 20.9614 77.4156 20.9494 77.4891 20.9238L77.547 21.1674C77.4152 21.2223 77.279 21.249 77.1398 21.249C76.777 21.249 76.5961 21.0891 76.5961 20.7678V19.6095H76.3645V19.3267H76.595C76.595 19.1103 76.6014 18.9548 76.6157 18.8605L77.0815 18.7596Z" fill="#1F2937"/>
<path d="M80.1544 21.0196L79.9196 21.2789C79.7797 21.2291 79.685 21.1452 79.6357 21.0272C79.4845 21.1807 79.2937 21.257 79.0628 21.257C78.8514 21.257 78.6853 21.2114 78.5643 21.1199C78.435 21.0212 78.3702 20.8793 78.3702 20.6942C78.3702 20.2593 78.7139 20.0425 79.4004 20.0425H79.541V19.9427C79.541 19.8293 79.5244 19.7493 79.4916 19.7023C79.4499 19.6426 79.3707 19.6134 79.2529 19.6134C79.066 19.6134 78.8588 19.6841 78.6307 19.8256L78.4283 19.5339C78.7258 19.3636 79.0192 19.2787 79.3089 19.2787C79.6361 19.2787 79.8461 19.3822 79.939 19.5899C79.9634 19.6463 79.974 19.7998 79.9717 20.0489V20.5864C79.9687 20.7097 79.974 20.7915 79.9883 20.8304C80.0129 20.9023 80.0683 20.9652 80.1544 21.0196ZM79.5205 20.3216C79.4854 20.3172 79.458 20.3151 79.4396 20.3151C79.2587 20.3151 79.1261 20.3338 79.042 20.3709C78.9208 20.4253 78.8595 20.5255 78.8595 20.6714C78.8595 20.8645 78.9554 20.9609 79.1464 20.9609C79.2974 20.9609 79.4221 20.8954 79.5205 20.765V20.3216Z" fill="#1F2937"/>
<path d="M81.6588 18.7596C81.633 18.943 81.6201 19.1325 81.6201 19.3265H82.1202L82.001 19.6093H81.6199V20.6616C81.6199 20.7673 81.6332 20.8404 81.6604 20.88C81.6964 20.9342 81.7676 20.9614 81.8743 20.9614C81.9287 20.9614 81.9934 20.9494 82.0667 20.9238L82.1246 21.1674C81.993 21.2223 81.8565 21.249 81.7166 21.249C81.3548 21.249 81.1737 21.0891 81.1737 20.7678V19.6095H80.9421V19.3267H81.1725C81.1725 19.1103 81.1797 18.9548 81.1933 18.8605L81.6588 18.7596Z" fill="#1F2937"/>
<path d="M84.7319 21.0196L84.4971 21.2789C84.357 21.2291 84.2623 21.1452 84.2127 21.0272C84.0615 21.1807 83.8707 21.257 83.6403 21.257C83.4285 21.257 83.2625 21.2114 83.1422 21.1199C83.0125 21.0212 82.9484 20.8793 82.9484 20.6942C82.9484 20.2593 83.2914 20.0425 83.9783 20.0425H84.1182V19.9427C84.1182 19.8293 84.1016 19.7493 84.0689 19.7023C84.0272 19.6426 83.9479 19.6134 83.8302 19.6134C83.6428 19.6134 83.4358 19.6841 83.2077 19.8256L83.0065 19.5339C83.304 19.3636 83.5969 19.2787 83.8864 19.2787C84.2136 19.2787 84.4236 19.3822 84.5167 19.5899C84.5409 19.6463 84.5522 19.7998 84.5494 20.0489V20.5864C84.5464 20.7097 84.5522 20.7915 84.5665 20.8304C84.5902 20.9023 84.6455 20.9652 84.7319 21.0196ZM84.098 20.3216C84.0632 20.3172 84.0357 20.3151 84.0166 20.3151C83.8357 20.3151 83.7034 20.3338 83.6195 20.3709C83.4978 20.4253 83.4372 20.5255 83.4372 20.6714C83.4372 20.8645 83.5331 20.9609 83.7241 20.9609C83.8749 20.9609 83.9993 20.8954 84.0977 20.765V20.3216H84.098Z" fill="#1F2937"/>
<path d="M88.9131 21.2012H88.4974C88.4833 21.1743 88.4711 21.1261 88.4605 21.0567C88.3229 21.1819 88.1526 21.2443 87.9494 21.2443C87.6638 21.2443 87.4453 21.1452 87.2944 20.9473C87.1626 20.7737 87.0964 20.5525 87.0964 20.2826C87.0964 20.0183 87.1649 19.7938 87.3025 19.6109C87.4615 19.3979 87.6811 19.2914 87.9611 19.2914C88.1367 19.2914 88.2865 19.3486 88.41 19.4624C88.4015 19.3587 88.3969 19.2559 88.3969 19.1543V18.4678L88.8477 18.5309V20.549C88.8477 20.8848 88.8698 21.1028 88.9131 21.2012ZM88.3969 20.7267V19.7706C88.2927 19.6689 88.1665 19.6182 88.0183 19.6182C87.7385 19.6182 87.5991 19.839 87.5991 20.2803C87.5991 20.4739 87.6193 20.6136 87.6606 20.7009C87.7235 20.8371 87.8466 20.9056 88.0309 20.9056C88.195 20.9053 88.3174 20.8459 88.3969 20.7267Z" fill="#1F2937"/>
<path d="M90.2757 19.0472C90.1932 19.0472 90.1238 19.0204 90.0678 18.9674C90.0114 18.9142 89.9833 18.8508 89.9833 18.7764C89.9833 18.7001 90.0119 18.6351 90.0697 18.5821C90.1275 18.5289 90.1985 18.5019 90.2838 18.5019C90.3686 18.5019 90.4396 18.5286 90.496 18.5821C90.552 18.6351 90.5799 18.7001 90.5799 18.7764C90.5799 18.8536 90.5507 18.9172 90.4919 18.9697C90.4327 19.0211 90.361 19.0472 90.2757 19.0472ZM90.5027 21.2013H90.0478V19.3527L90.5027 19.2788V21.2013Z" fill="#1F2937"/>
<path d="M95.8106 21.2013H95.3642V19.9006C95.3642 19.8061 95.3543 19.739 95.3349 19.6994C95.3047 19.6455 95.243 19.618 95.149 19.618C95.0252 19.618 94.8779 19.6897 94.7074 19.833V21.2013H94.2741V19.9082C94.2741 19.8118 94.2628 19.7432 94.2407 19.7035C94.2057 19.6464 94.1409 19.6178 94.0478 19.6178C93.9112 19.6178 93.7692 19.6793 93.6212 19.8038V21.2011H93.1797V19.8561C93.1797 19.6388 93.1553 19.4811 93.1066 19.382L93.5185 19.2786C93.5595 19.3376 93.5846 19.4173 93.5929 19.5176C93.7632 19.3583 93.9471 19.2786 94.1455 19.2786C94.3509 19.2786 94.517 19.3705 94.644 19.5551C94.8441 19.3708 95.0522 19.2786 95.2663 19.2786C95.629 19.2786 95.8106 19.4618 95.8106 19.828V21.2013Z" fill="#1F2937"/>
<path d="M98.6282 21.0196L98.3936 21.2789C98.2538 21.2291 98.159 21.1452 98.1097 21.0272C97.9588 21.1807 97.7677 21.257 97.5368 21.257C97.3255 21.257 97.1591 21.2114 97.0383 21.1199C96.909 21.0212 96.8447 20.8793 96.8447 20.6942C96.8447 20.2593 97.1881 20.0425 97.8746 20.0425H98.0145V19.9427C98.0145 19.8293 97.9982 19.7493 97.9652 19.7023C97.9244 19.6426 97.8442 19.6134 97.7262 19.6134C97.5393 19.6134 97.3321 19.6841 97.1042 19.8256L96.9026 19.5339C97.1996 19.3636 97.4932 19.2787 97.782 19.2787C98.1095 19.2787 98.3197 19.3822 98.413 19.5899C98.4372 19.6463 98.448 19.7998 98.4455 20.0489V20.5864C98.4425 20.7097 98.4483 20.7915 98.4621 20.8304C98.4872 20.9023 98.5432 20.9652 98.6282 21.0196ZM97.9947 20.3216C97.9599 20.3172 97.9327 20.3151 97.9138 20.3151C97.7325 20.3151 97.5999 20.3338 97.5167 20.3709C97.3946 20.4253 97.3342 20.5255 97.3342 20.6714C97.3342 20.8645 97.4299 20.9609 97.6211 20.9609C97.7714 20.9609 97.8959 20.8954 97.9947 20.765V20.3216Z" fill="#1F2937"/>
<path d="M101.248 21.2012H100.797V19.9531C100.797 19.8468 100.787 19.7712 100.765 19.7268C100.729 19.6597 100.66 19.6265 100.559 19.6265C100.411 19.6265 100.258 19.697 100.102 19.8381V21.2012H99.6558V19.8231C99.6558 19.6475 99.6307 19.4993 99.579 19.3781L99.9904 19.2746C100.04 19.358 100.065 19.4468 100.065 19.5401C100.29 19.3629 100.503 19.2746 100.704 19.2746C100.881 19.2746 101.015 19.3214 101.108 19.4159C101.201 19.5104 101.248 19.6369 101.248 19.795V21.2012H101.248Z" fill="#1F2937"/>
<path d="M103.185 19.279C103.492 19.279 103.728 19.3781 103.894 19.5756C104.042 19.7514 104.115 19.9828 104.115 20.2695C104.115 20.5513 104.042 20.7804 103.894 20.956C103.728 21.151 103.495 21.2489 103.193 21.2489C102.891 21.2489 102.658 21.1505 102.493 20.9523C102.347 20.777 102.274 20.5481 102.274 20.266C102.274 19.9867 102.347 19.7574 102.493 19.5795C102.655 19.379 102.886 19.279 103.185 19.279ZM103.187 19.5883C102.913 19.5883 102.777 19.806 102.777 20.2423C102.777 20.443 102.795 20.594 102.834 20.6954C102.899 20.8643 103.022 20.9487 103.199 20.9487C103.475 20.9487 103.614 20.7251 103.614 20.2789C103.614 19.8183 103.472 19.5883 103.187 19.5883Z" fill="#1F2937"/>
</svg>
