<svg width="105" height="22" viewBox="0 0 105 22" fill="none" xmlns="http://www.w3.org/2000/svg">
<path d="M97.2024 17.3191H100.479V0.234056H97.2024V17.3191ZM87.2435 10.1575C87.3839 9.45538 87.7155 8.89364 88.2382 8.47224C88.7609 8.05085 89.3652 7.84035 90.0511 7.84076C90.8154 7.84076 91.4551 8.05125 91.9702 8.47224C92.4853 8.89323 92.7818 9.45498 92.8596 10.1575H87.2435ZM90.075 17.5531C91.479 17.5531 92.6609 17.2294 93.6206 16.5819C94.5804 15.9344 95.2786 14.9634 95.7153 13.6689L95.5524 13.388L92.8142 13.1063C92.3774 14.308 91.4879 14.9087 90.1457 14.9085C89.3029 14.9085 88.6125 14.6708 88.0744 14.1955C87.5364 13.7202 87.2284 13.076 87.1504 12.263H95.9504V11.3978C95.9504 10.1654 95.7047 9.09659 95.2132 8.19133C94.7217 7.28607 94.0313 6.59178 93.1419 6.10846C92.2526 5.62501 91.2306 5.38314 90.076 5.38287C89.0349 5.37761 88.0104 5.64384 87.1036 6.15531C86.1828 6.67028 85.4456 7.38799 84.8919 8.30846C84.3383 9.22893 84.0614 10.2823 84.0612 11.4685C84.0612 12.6702 84.3186 13.7312 84.8335 14.6514C85.3483 15.5716 86.0621 16.2854 86.975 16.7929C87.8876 17.3001 88.9213 17.5537 90.076 17.5536M74.7565 10.1575C74.8969 9.45538 75.2284 8.89364 75.7511 8.47224C76.2738 8.05085 76.8782 7.84035 77.5641 7.84076C78.3284 7.84076 78.9681 8.05125 79.4832 8.47224C79.9983 8.89323 80.2948 9.45498 80.3728 10.1575H74.7565ZM77.5879 17.5531C78.9923 17.5531 80.1742 17.2294 81.1338 16.5819C82.0934 15.9344 82.7915 14.9634 83.2283 13.6689L83.0653 13.388L80.3261 13.1063C79.889 14.308 78.9995 14.9087 77.6576 14.9085C76.8156 14.9085 76.1252 14.6708 75.5863 14.1955C75.0475 13.7202 74.7395 13.076 74.6623 12.263H83.4623V11.3978C83.4623 10.1654 83.2166 9.09659 82.7251 8.19133C82.2337 7.28607 81.5432 6.59178 80.6537 6.10846C79.7642 5.62501 78.7423 5.38314 77.5879 5.38287C76.5269 5.38287 75.5362 5.64035 74.6157 6.15531C73.6952 6.67028 72.9579 7.38799 72.4037 8.30846C71.8496 9.22934 71.5726 10.2826 71.5728 11.4681C71.5728 12.6698 71.8303 13.7308 72.3452 14.651C72.8602 15.5712 73.574 16.285 74.4868 16.7925C75.3999 17.2997 76.4336 17.5533 77.5879 17.5531ZM65.7595 17.3191H69.012V8.33148H71.4226V5.61693H69.012V3.88544C69.012 3.47994 69.1212 3.17567 69.3396 2.97265C69.5579 2.76962 69.8546 2.66825 70.2296 2.66852C70.591 2.669 70.9489 2.74057 71.2827 2.87915L71.4467 2.76202V0.234056C70.9317 0.0780185 70.3778 0 69.7849 0C68.6458 0 67.69 0.308136 66.9177 0.924407C66.1454 1.54068 65.7593 2.46515 65.7593 3.69783V5.61693H63.7935V8.33148H65.7593L65.7595 17.3191ZM57.7411 17.5531C59.2391 17.5531 60.4796 17.1748 61.4625 16.4181C62.4455 15.6614 63.1164 14.5809 63.4751 13.1766L63.2879 12.9659L60.5732 12.685C60.3544 13.356 60.0189 13.8631 59.5667 14.2063C59.1145 14.5495 58.5059 14.7211 57.7411 14.7213C56.8829 14.7213 56.1768 14.4365 55.6226 13.8669C55.0684 13.2974 54.7916 12.4979 54.7923 11.4685C54.7923 10.4386 55.0692 9.63892 55.6232 9.0695C56.1771 8.50008 56.8833 8.2153 57.7417 8.21517C58.5063 8.21517 59.1304 8.3985 59.6141 8.76517C60.0979 9.13183 60.4178 9.62751 60.5738 10.2522L63.2879 9.97028L63.4751 9.73602C63.2096 8.39443 62.5739 7.33347 61.5679 6.55315C60.5618 5.77283 59.2862 5.38273 57.7411 5.38287C56.602 5.38287 55.5683 5.64035 54.6401 6.15531C53.7119 6.67028 52.9747 7.39193 52.4285 8.32028C51.8822 9.24849 51.6091 10.2979 51.6094 11.4685C51.6097 12.6391 51.8827 13.6884 52.4285 14.6164C52.9744 15.5448 53.7116 16.2664 54.6401 16.7811C55.5686 17.2958 56.6022 17.5531 57.7411 17.5531ZM47.1625 17.3191H50.4391V5.61693H47.1625V17.3191ZM48.8007 4.32972C49.3312 4.32972 49.7798 4.14252 50.1466 3.76811C50.5134 3.3937 50.6967 2.94902 50.6966 2.43406C50.6966 1.91909 50.5133 1.47441 50.1466 1.1C49.7799 0.725593 49.3313 0.538321 48.8007 0.538185C48.2859 0.538185 47.8412 0.725457 47.4667 1.1C47.0921 1.47454 46.9049 1.91923 46.9051 2.43406C46.9051 2.94875 47.0923 3.39343 47.4667 3.76811C47.8411 4.14279 48.2858 4.32999 48.8007 4.32972ZM39.65 14.8382C38.8228 14.8382 38.1324 14.5808 37.5787 14.0659C37.025 13.5511 36.7481 12.8721 36.7478 12.0289V10.9063C36.7478 10.0486 37.0208 9.36596 37.5669 8.85846C38.1129 8.35097 38.792 8.09743 39.6039 8.09783C40.5086 8.09783 41.2458 8.39429 41.8155 8.9872C42.3852 9.58012 42.6697 10.4072 42.6691 11.4685C42.6691 12.5295 42.3882 13.3564 41.8265 13.9492C41.2649 14.542 40.5393 14.8385 39.65 14.8386M33.4712 22H36.7478V16.3594C37.1688 16.7186 37.672 17.0074 38.2574 17.2256C38.8529 17.4457 39.4832 17.5567 40.1181 17.5531C41.1154 17.5571 42.0989 17.3202 42.985 16.8626C43.8821 16.4026 44.6076 15.7161 45.1616 14.8031C45.7155 13.8901 45.9928 12.7786 45.9935 11.4685C45.9935 10.1579 45.7282 9.04614 45.1976 8.13328C44.667 7.22041 43.9806 6.53393 43.1382 6.07383C42.2962 5.61373 41.4225 5.38355 40.5169 5.38328C38.9723 5.38328 37.7161 5.88262 36.7484 6.88131V5.61693H33.4712V22ZM25.858 14.7213C24.9529 14.7213 24.2117 14.4287 23.6346 13.8435C23.0574 13.2583 22.7688 12.4667 22.7686 11.4685C22.7686 10.4702 23.0573 9.67837 23.6346 9.09293C24.2119 8.50748 24.953 8.2149 25.858 8.21517C26.7628 8.21517 27.5079 8.50775 28.0932 9.09293C28.6785 9.6781 28.9711 10.47 28.9708 11.4685C28.9708 12.4671 28.6783 13.2589 28.0932 13.8439C27.5082 14.4289 26.7631 14.7215 25.858 14.7217M25.858 17.5531C27.0904 17.5531 28.1904 17.2879 29.158 16.7575C30.1256 16.227 30.8825 15.5015 31.4287 14.5809C31.9743 13.6603 32.2472 12.6228 32.2474 11.4685C32.2475 10.3142 31.9746 9.27646 31.4287 8.35532C30.8823 7.43471 30.1256 6.70919 29.1584 6.17874C28.1912 5.6483 27.0912 5.38301 25.8584 5.38287C24.6415 5.38287 23.5493 5.64816 22.5818 6.17874C21.6144 6.70932 20.8575 7.43485 20.3113 8.35532C19.7649 9.27646 19.4916 10.3142 19.4916 11.4685C19.4916 12.6228 19.7647 13.6604 20.3109 14.5813C20.8569 15.5021 21.6136 16.2276 22.581 16.7579C23.5485 17.2882 24.6407 17.5534 25.8576 17.5536M11.9326 17.3191H15.2092V10.2978C15.5369 9.61135 15.9582 9.08851 16.4732 8.72931C16.9881 8.37012 17.5653 8.19065 18.2046 8.19093C18.423 8.19093 18.6882 8.22997 19.0003 8.30806L19.1643 8.14509L19.5855 5.57068C19.3047 5.44588 18.9302 5.38341 18.4621 5.38328C17.8067 5.38328 17.206 5.53151 16.66 5.82796C16.1139 6.12442 15.6302 6.52232 15.2088 7.02167V5.61693H11.9326V17.3191ZM4.60518 17.3191H8.18608V3.97874H12.3052V0.937037H0.486084V3.97874H4.60518V17.3191Z" fill="#1F2937"/>
<path d="M102.498 1.53734V0.940896H102.79C102.889 0.940896 102.968 0.966358 103.026 1.01728C103.084 1.06801 103.113 1.14215 103.113 1.23912C103.113 1.33608 103.083 1.41023 103.024 1.46095C102.964 1.51167 102.886 1.53734 102.79 1.53734H102.498ZM102.328 2.22606H102.498V1.70071H102.836L103.099 2.22606H103.294L103.003 1.66506C103.19 1.5609 103.283 1.42007 103.283 1.24258C103.283 1.09836 103.237 0.98476 103.145 0.901784C103.052 0.818809 102.92 0.777389 102.747 0.777525H102.328V2.22606ZM102.776 2.61656C102.581 2.61825 102.39 2.56609 102.222 2.46582C102.056 2.36698 101.918 2.22658 101.823 2.05841C101.725 1.8891 101.674 1.69668 101.675 1.50108C101.674 1.30541 101.725 1.11292 101.823 0.943544C101.919 0.775741 102.056 0.635697 102.222 0.537155C102.39 0.438325 102.581 0.386205 102.776 0.386205C102.971 0.386205 103.162 0.438325 103.33 0.537155C103.496 0.635979 103.634 0.776386 103.729 0.944562C103.827 1.11394 103.878 1.30643 103.877 1.5021C103.878 1.6977 103.827 1.89012 103.729 2.05943C103.634 2.2276 103.496 2.368 103.33 2.46684C103.163 2.56707 102.971 2.61923 102.776 2.61758M102.776 2.78054C102.944 2.78168 103.111 2.7494 103.267 2.68558C103.422 2.62175 103.564 2.52765 103.683 2.40875C103.801 2.28985 103.896 2.1485 103.959 1.99293C104.023 1.83736 104.055 1.67066 104.054 1.50251C104.056 1.3333 104.025 1.16536 103.962 1.00841C103.898 0.851468 103.805 0.70865 103.686 0.588241C103.567 0.467832 103.425 0.37223 103.269 0.30698C103.113 0.24173 102.945 0.20813 102.776 0.20813C102.607 0.20813 102.439 0.24173 102.283 0.30698C102.127 0.37223 101.986 0.467832 101.867 0.588241C101.748 0.70865 101.654 0.851468 101.591 1.00841C101.527 1.16536 101.496 1.3333 101.498 1.50251C101.497 1.67072 101.529 1.83751 101.593 1.99317C101.656 2.14883 101.751 2.29025 101.87 2.40919C101.988 2.52813 102.13 2.62222 102.286 2.68597C102.441 2.74972 102.608 2.78187 102.776 2.78054Z" fill="#1F2937"/>
</svg>
